<svg width="680" height="680" viewBox="0 0 680 680" fill="none" xmlns="http://www.w3.org/2000/svg">
<g clip-path="url(#clip0_242_63)">
<path d="M680 0H0V680H680V0Z" fill="black"/>
<path d="M340 0V680" stroke="#CACACA" stroke-opacity="0.1"/>
<path d="M510 0V680" stroke="#CACACA" stroke-opacity="0.1"/>
<path d="M595 0V680" stroke="#CACACA" stroke-opacity="0.1"/>
<path d="M170 0V680" stroke="#CACACA" stroke-opacity="0.1"/>
<path d="M85 0V680" stroke="#CACACA" stroke-opacity="0.1"/>
<path d="M425 0V680" stroke="#CACACA" stroke-opacity="0.1"/>
<path d="M255 0V680" stroke="#CACACA" stroke-opacity="0.1"/>
<path d="M680 340L0.000227124 340" stroke="#CACACA" stroke-opacity="0.1"/>
<path d="M680 255L0.000227124 255" stroke="#CACACA" stroke-opacity="0.1"/>
<path d="M680 510L0.000227124 510" stroke="#CACACA" stroke-opacity="0.1"/>
<path d="M680 595L0.000227124 595" stroke="#CACACA" stroke-opacity="0.1"/>
<path d="M680 170L0.000227124 170" stroke="#CACACA" stroke-opacity="0.1"/>
<path d="M680 85L0.000227124 85" stroke="#CACACA" stroke-opacity="0.1"/>
<path d="M680 425L0.000227124 425" stroke="#CACACA" stroke-opacity="0.1"/>
<path d="M340 0V680" stroke="#CACACA" stroke-opacity="0.1"/>
<path d="M510 0V680" stroke="#CACACA" stroke-opacity="0.1"/>
<path d="M595 0V680" stroke="#CACACA" stroke-opacity="0.1"/>
<path d="M170 0V680" stroke="#CACACA" stroke-opacity="0.1"/>
<path d="M85 0V680" stroke="#CACACA" stroke-opacity="0.1"/>
<path d="M425 0V680" stroke="#CACACA" stroke-opacity="0.1"/>
<path d="M255 0V680" stroke="#CACACA" stroke-opacity="0.1"/>
<path d="M680 340L0.000227124 340" stroke="#CACACA" stroke-opacity="0.1"/>
<path d="M680 255L0.000227124 255" stroke="#CACACA" stroke-opacity="0.1"/>
<path d="M680 510L0.000227124 510" stroke="#CACACA" stroke-opacity="0.1"/>
<path d="M680 595L0.000227124 595" stroke="#CACACA" stroke-opacity="0.1"/>
<path d="M680 170L0.000227124 170" stroke="#CACACA" stroke-opacity="0.1"/>
<path d="M680 85L0.000227124 85" stroke="#CACACA" stroke-opacity="0.1"/>
<path d="M680 425L0.000227124 425" stroke="#CACACA" stroke-opacity="0.1"/>
<circle cx="340" cy="340" r="339.5" stroke="#232323"/>
<ellipse cx="510" cy="169.526" rx="6.78906" ry="6.78853" fill="black"/>
<path fill-rule="evenodd" clip-rule="evenodd" d="M513.36 161.411C513.009 160.835 512.515 160.359 511.927 160.029C511.338 159.698 510.675 159.525 510 159.525C508.577 159.525 507.33 160.28 506.64 161.412C505.984 161.253 505.298 161.265 504.648 161.447C503.998 161.63 503.406 161.976 502.928 162.453C502.451 162.931 502.104 163.523 501.922 164.173C501.74 164.823 501.728 165.509 501.887 166.165C501.311 166.516 500.834 167.009 500.504 167.598C500.173 168.186 500 168.85 500 169.525C500 170.947 500.755 172.193 501.886 172.884C501.727 173.54 501.739 174.226 501.921 174.876C502.103 175.526 502.45 176.118 502.927 176.596C503.405 177.073 503.997 177.42 504.647 177.602C505.297 177.784 505.983 177.796 506.639 177.637C507.127 178.438 507.885 179.039 508.777 179.331C509.668 179.622 510.635 179.585 511.502 179.227C512.274 178.907 512.924 178.351 513.36 177.638C514.016 177.797 514.702 177.785 515.352 177.603C516.003 177.421 516.595 177.074 517.072 176.597C517.55 176.119 517.896 175.527 518.079 174.877C518.261 174.227 518.273 173.54 518.113 172.884C518.689 172.533 519.166 172.04 519.496 171.451C519.827 170.863 520 170.199 520 169.525C520 168.85 519.827 168.186 519.496 167.598C519.166 167.009 518.689 166.516 518.113 166.165C518.272 165.509 518.26 164.823 518.078 164.173C517.895 163.523 517.548 162.931 517.071 162.454C516.594 161.977 516.002 161.63 515.352 161.447C514.703 161.265 514.017 161.252 513.361 161.411H513.36ZM509.402 173.123L513.964 166.28C514.53 165.434 513.213 164.556 512.648 165.402L508.622 171.444L507.251 170.077C506.534 169.355 505.415 170.473 506.135 171.192L508.305 173.342C508.391 173.4 508.488 173.441 508.59 173.461C508.692 173.481 508.797 173.481 508.899 173.461C509.001 173.44 509.098 173.4 509.184 173.342C509.271 173.284 509.345 173.209 509.402 173.122V173.123Z" fill="white"/>
<path d="M509.52 254.642C509.52 301.454 471.571 339.402 424.759 339.402V339.402V254.642H509.52V254.642Z" fill="#FFF2DA"/>
<path d="M424.758 255H509.518V255C509.518 208.188 471.57 170.24 424.758 170.24V170.24V255Z" fill="#FF7F8E"/>
<path d="M340 254.642C340 301.454 377.948 339.402 424.76 339.402V339.402V254.642H340V254.642Z" fill="black"/>
<path d="M424.758 255H339.998V255C339.998 208.188 377.946 170.24 424.758 170.24V170.24V255Z" fill="#C83182"/>
<path d="M339.52 254.643C339.52 301.652 301.411 339.76 254.402 339.76V339.76V254.643H339.52V254.643Z" fill="#FFF2DA"/>
<path d="M254.402 254.643H339.52V254.643C339.52 207.698 301.347 169.525 254.402 169.525V169.525V254.643Z" fill="#6C31D7"/>
<path d="M169.285 254.643C169.285 301.652 207.393 339.76 254.402 339.76V339.76V254.643H169.285V254.643Z" fill="black"/>
<path d="M254.402 254.643H169.285V169.525H254.402V254.643Z" fill="#4A2387"/>
<path d="M255.168 425L170.168 425L170.168 340L255.168 340L255.168 425Z" fill="#D5332F"/>
<path d="M255.168 510L170.168 510L170.168 425L255.168 425L255.168 510Z" fill="#EA5B33"/>
<path d="M424.52 425L339.52 425L339.52 340L424.52 340L424.52 425Z" fill="#DA3321"/>
<path d="M424.402 510L339.402 510L339.402 425L424.402 425L424.402 510Z" fill="#F09837"/>
<path d="M339.766 425L254.766 425L254.766 340L339.766 340L339.766 425Z" fill="#D41515"/>
<path d="M340 510L255 510L255 425L340 425L340 510Z" fill="#EF9933"/>
<path d="M509.402 425L424.402 425L424.402 340L509.402 340L509.402 425Z" fill="#EC7368"/>
<path d="M509.164 510L424.403 510L424.403 425L509.164 425L509.164 510Z" fill="#F2A840"/>
<path d="M254.402 680L339.402 680L339.402 595L254.402 595L254.402 680Z" fill="#94E337"/>
<path d="M255.168 680L170.168 680V680C170.168 633.056 208.224 595 255.168 595V595L255.168 680Z" fill="#FBEA5B"/>
<path d="M339.402 680L424.402 680L424.402 595L339.402 595L339.402 680Z" fill="#77E39F"/>
<path d="M508.402 680C508.402 633.056 470.347 595 423.402 595V595L423.402 680L508.402 680V680Z" fill="#9DEFBF"/>
</g>
<defs>
<clipPath id="clip0_242_63">
<rect width="680" height="680" fill="white"/>
</clipPath>
</defs>
</svg>
